<svg width="30" height="21" viewBox="0 0 30 21" fill="none" xmlns="http://www.w3.org/2000/svg">
<path d="M27.2112 0.350586H3.00843C1.52426 0.350586 0.321106 1.55374 0.321106 3.03791V17.5224C0.321106 19.0066 1.52426 20.2097 3.00843 20.2097H27.2112C28.6954 20.2097 29.8986 19.0066 29.8986 17.5224V3.03791C29.8986 1.55374 28.6954 0.350586 27.2112 0.350586Z" fill="#ED5565"/>
<path d="M20.2817 12.0845C20.2924 11.8073 20.3645 11.536 20.4929 11.2901L20.8605 10.6521C20.978 10.4196 20.978 10.1452 20.8605 9.91267L20.4845 9.25774C20.3582 9.00695 20.289 8.73137 20.2817 8.4507V7.69436C20.266 7.43474 20.128 7.19798 19.9098 7.05634L19.2718 6.69295C19.0365 6.54435 18.8373 6.34515 18.6887 6.10986L18.3211 5.47183C18.1795 5.25368 17.9427 5.1157 17.6831 5.1H16.9014C16.6244 5.08834 16.3532 5.01623 16.107 4.88873L15.4521 4.51267C15.2196 4.39519 14.9451 4.39519 14.7126 4.51267L14.0788 4.8845C13.8333 5.01438 13.562 5.08799 13.2845 5.1H12.5535C12.2939 5.1157 12.0571 5.25368 11.9155 5.47183L11.5352 6.12676C11.3857 6.36135 11.1867 6.56038 10.9521 6.70986L10.3014 7.09014C10.0837 7.23358 9.9472 7.47203 9.93377 7.73239V8.46338C9.92336 8.74059 9.85118 9.01198 9.7225 9.25774L9.3549 9.89577C9.23741 10.1283 9.23741 10.4027 9.3549 10.6352L9.73095 11.2901C9.85979 11.5361 9.93334 11.8072 9.94645 12.0845V12.8408C9.96215 13.1005 10.1001 13.3372 10.3183 13.4789L10.9563 13.8422C11.1915 13.991 11.3907 14.1901 11.5394 14.4253L11.907 15.0634C12.0487 15.2815 12.2854 15.4195 12.545 15.4352H13.3014C13.5784 15.4469 13.8495 15.519 14.0957 15.6465L14.7507 16.0225C14.9832 16.14 15.2576 16.14 15.4901 16.0225L16.1239 15.6507C16.3694 15.5207 16.6408 15.4471 16.9183 15.4352H17.6493C17.9089 15.4195 18.1457 15.2815 18.2873 15.0634L18.6633 14.4084C18.8128 14.1739 19.0119 13.9748 19.2464 13.8253L19.8972 13.4451C20.1148 13.3016 20.2513 13.0632 20.2648 12.8028L20.2817 12.0845Z" fill="#F6D660"/>
<path d="M15.1098 6.76048C17.0467 6.76048 18.6168 8.33063 18.6168 10.2675C18.6168 12.2044 17.0467 13.7746 15.1098 13.7746C13.1729 13.7746 11.6028 12.2044 11.6028 10.2675C11.6028 8.33063 13.1729 6.76048 15.1098 6.76048ZM15.1098 5.91541C12.7062 5.91541 10.7577 7.86391 10.7577 10.2675C10.7577 12.6711 12.7062 14.6196 15.1098 14.6196C17.5134 14.6196 19.4619 12.6711 19.4619 10.2675C19.4596 7.86488 17.5124 5.91773 15.1098 5.91541Z" fill="#ED5565"/>
<path d="M15.1098 13.7873C17.0467 13.7873 18.6169 12.2171 18.6169 10.2802C18.6169 8.34335 17.0467 6.77319 15.1098 6.77319C13.1729 6.77319 11.6028 8.34335 11.6028 10.2802C11.6028 12.2171 13.1729 13.7873 15.1098 13.7873Z" fill="#F6D660"/>
<path d="M15.9464 8.62377C16.5565 8.37319 17.2095 8.24402 17.869 8.24349H17.9619C17.7408 7.93454 17.4711 7.66342 17.1633 7.44067C16.4454 7.52526 15.7493 7.74155 15.1098 8.0787C14.4704 7.74155 13.7742 7.52526 13.0563 7.44067C12.7485 7.66342 12.4788 7.93454 12.2577 8.24349H12.3507C13.0101 8.24402 13.6632 8.37319 14.2732 8.62377C13.1616 9.47152 12.3862 10.6855 12.0845 12.0505C12.2764 12.3792 12.5205 12.6746 12.807 12.9252C12.9306 11.3493 13.7822 9.92119 15.1098 9.06321C16.4375 9.92119 17.289 11.3493 17.4126 12.9252C17.6992 12.6746 17.9432 12.3792 18.1352 12.0505C17.8334 10.6855 17.058 9.47152 15.9464 8.62377Z" fill="#ED5565"/>
</svg>
