<svg width="104" height="21" viewBox="0 0 104 21" fill="none" xmlns="http://www.w3.org/2000/svg">
<path d="M13.9321 16.8965H10.2081V10.1495H3.72399V16.8965H0V0.938117H3.72399V7.60843H10.2081V0.938117H13.9321V16.8965Z" fill="black"/>
<path d="M23.3047 16.8965C22.9834 16.8965 22.7388 16.8527 22.5709 16.7651C22.4102 16.6774 22.2751 16.4949 22.1656 16.2174L21.9246 15.5931C21.6399 15.8341 21.366 16.0458 21.1032 16.2284C20.8403 16.4109 20.5665 16.5679 20.2817 16.6993C20.0042 16.8235 19.7048 16.9147 19.3836 16.9732C19.0696 17.0389 18.7191 17.0717 18.3321 17.0717C17.8136 17.0717 17.3427 17.006 16.9192 16.8746C16.4956 16.7359 16.1342 16.535 15.8348 16.2722C15.5427 16.0093 15.3164 15.6844 15.1557 15.2974C14.9951 14.9031 14.9148 14.4503 14.9148 13.9392C14.9148 13.5376 15.017 13.125 15.2215 12.7015C15.4259 12.278 15.7801 11.8947 16.2839 11.5515C16.7877 11.201 17.4668 10.9089 18.3211 10.6752C19.1755 10.4416 20.2525 10.3101 21.5522 10.2809V9.79901C21.5522 9.13454 21.4135 8.65626 21.136 8.36418C20.8658 8.0648 20.4788 7.91511 19.975 7.91511C19.5734 7.91511 19.2448 7.95893 18.9893 8.04655C18.7337 8.13417 18.5037 8.23275 18.2992 8.34228C18.1021 8.45181 17.9086 8.55038 17.7187 8.63801C17.5289 8.72563 17.3025 8.76944 17.0396 8.76944C16.806 8.76944 16.6052 8.71468 16.4372 8.60515C16.2766 8.48832 16.1488 8.34593 16.0539 8.17798L15.4405 7.11555C16.1269 6.50949 16.8863 6.06042 17.7187 5.76835C18.5584 5.46897 19.4566 5.31928 20.4131 5.31928C21.0995 5.31928 21.7165 5.43246 22.2642 5.65882C22.8191 5.87788 23.2864 6.18821 23.6661 6.58981C24.0531 6.98412 24.3489 7.45509 24.5533 8.00274C24.7578 8.55038 24.86 9.14914 24.86 9.79901V16.8965H23.3047ZM19.4055 14.8264C19.8436 14.8264 20.2269 14.7497 20.5555 14.5964C20.8841 14.443 21.2163 14.1948 21.5522 13.8516V12.2744C20.8732 12.3036 20.3146 12.362 19.8764 12.4496C19.4383 12.5372 19.0915 12.6468 18.8359 12.7782C18.5803 12.9096 18.4014 13.0593 18.2992 13.2273C18.2043 13.3952 18.1568 13.5778 18.1568 13.7749C18.1568 14.1619 18.2627 14.4357 18.4745 14.5964C18.6862 14.7497 18.9966 14.8264 19.4055 14.8264Z" fill="black"/>
<path d="M26.1757 16.8965V5.53833H28.2787C28.4904 5.53833 28.6657 5.5858 28.8044 5.68072C28.9505 5.77565 29.0527 5.91804 29.1111 6.10789L29.3083 6.76506C29.5273 6.56061 29.7537 6.37076 29.9873 6.19551C30.221 6.02026 30.4693 5.87422 30.7321 5.75739C31.0023 5.63326 31.2907 5.53833 31.5974 5.47262C31.9114 5.3996 32.2509 5.36309 32.616 5.36309C33.2367 5.36309 33.7843 5.47262 34.259 5.69168C34.7409 5.90343 35.1462 6.20281 35.4747 6.58981C35.8033 6.96951 36.0516 7.42588 36.2195 7.95893C36.3875 8.48467 36.4715 9.05787 36.4715 9.67853V16.8965H33.0761V9.67853C33.0761 9.12358 32.9483 8.69277 32.6927 8.38609C32.4371 8.07211 32.0611 7.91511 31.5646 7.91511C31.1922 7.91511 30.8417 7.99544 30.5131 8.15608C30.1845 8.31672 29.8705 8.53213 29.5711 8.8023V16.8965H26.1757Z" fill="black"/>
<path d="M45.7612 16.8965C45.5495 16.8965 45.3706 16.849 45.2245 16.7541C45.0858 16.6592 44.9872 16.5168 44.9288 16.3269L44.6659 15.4617C44.4396 15.7026 44.2023 15.9217 43.954 16.1188C43.7057 16.316 43.4356 16.4876 43.1435 16.6336C42.8587 16.7724 42.5484 16.8782 42.2125 16.9513C41.8839 17.0316 41.5261 17.0717 41.1391 17.0717C40.5476 17.0717 40 16.9403 39.4962 16.6774C38.9923 16.4146 38.5579 16.0349 38.1928 15.5383C37.8277 15.0418 37.5392 14.4357 37.3275 13.7202C37.123 12.9973 37.0208 12.1758 37.0208 11.2557C37.0208 10.4087 37.1376 9.62377 37.3713 8.90088C37.605 8.17068 37.9336 7.54272 38.3571 7.01698C38.7879 6.48394 39.3027 6.06773 39.9014 5.76835C40.5002 5.46897 41.161 5.31928 41.8839 5.31928C42.4681 5.31928 42.9609 5.4069 43.3625 5.58215C43.7714 5.75009 44.1402 5.9728 44.4688 6.25027V0.5H47.8642V16.8965H45.7612ZM42.322 14.4649C42.5703 14.4649 42.793 14.443 42.9901 14.3992C43.1946 14.3481 43.3808 14.2788 43.5487 14.1911C43.7167 14.1035 43.8737 13.994 44.0197 13.8625C44.173 13.7311 44.3227 13.5778 44.4688 13.4025V8.58324C44.2059 8.29847 43.9248 8.10131 43.6254 7.99178C43.3333 7.87495 43.023 7.81654 42.6944 7.81654C42.3804 7.81654 42.092 7.8786 41.8291 8.00274C41.5663 8.12687 41.3363 8.32767 41.1391 8.60515C40.9492 8.87532 40.7996 9.22946 40.69 9.66758C40.5805 10.1057 40.5257 10.6351 40.5257 11.2557C40.5257 11.8545 40.5695 12.3583 40.6572 12.7672C40.7448 13.1762 40.8653 13.5084 41.0186 13.764C41.1793 14.0122 41.3691 14.1911 41.5882 14.3007C41.8072 14.4102 42.0518 14.4649 42.322 14.4649Z" fill="black"/>
<path d="M54.0433 19.8428C53.9411 20.0692 53.817 20.2335 53.6709 20.3357C53.5249 20.4452 53.2912 20.5 52.9699 20.5H50.4289L52.6194 15.8998L48.0849 5.53833H51.086C51.3489 5.53833 51.5534 5.59675 51.6994 5.71358C51.8454 5.83041 51.9477 5.96915 52.0061 6.12979L53.8681 11.0257C54.0433 11.4785 54.1857 11.9312 54.2952 12.3839C54.3683 12.1502 54.4486 11.9202 54.5362 11.6939C54.6238 11.4675 54.7078 11.2375 54.7881 11.0038L56.4749 6.12979C56.5333 5.96185 56.6465 5.82311 56.8144 5.71358C56.9897 5.59675 57.1759 5.53833 57.373 5.53833H60.1112L54.0433 19.8428Z" fill="black"/>
<path d="M74.8918 8.91183C74.8918 10.0655 74.691 11.1316 74.2894 12.1101C73.8951 13.0812 73.3365 13.9246 72.6136 14.6402C71.8907 15.3485 71.0182 15.9034 69.9959 16.305C68.9809 16.6993 67.8528 16.8965 66.6114 16.8965H60.4121V0.938117H66.6114C67.8528 0.938117 68.9809 1.13892 69.9959 1.54053C71.0182 1.94213 71.8907 2.49708 72.6136 3.20537C73.3365 3.91366 73.8951 4.75703 74.2894 5.73549C74.691 6.70664 74.8918 7.76542 74.8918 8.91183ZM71.1021 8.91183C71.1021 8.12322 70.9999 7.41128 70.7955 6.77601C70.591 6.14074 70.2953 5.60405 69.9083 5.16594C69.5286 4.72052 69.0612 4.38098 68.5063 4.14732C67.9513 3.90635 67.3197 3.78587 66.6114 3.78587H64.1361V14.0487H66.6114C67.3197 14.0487 67.9513 13.9319 68.5063 13.6982C69.0612 13.4573 69.5286 13.1177 69.9083 12.6796C70.2953 12.2342 70.591 11.6939 70.7955 11.0586C70.9999 10.4233 71.1021 9.70774 71.1021 8.91183Z" fill="black"/>
<path d="M83.4173 16.8965C83.096 16.8965 82.8514 16.8527 82.6835 16.7651C82.5228 16.6774 82.3877 16.4949 82.2782 16.2174L82.0372 15.5931C81.7525 15.8341 81.4786 16.0458 81.2158 16.2284C80.9529 16.4109 80.6791 16.5679 80.3943 16.6993C80.1168 16.8235 79.8175 16.9147 79.4962 16.9732C79.1822 17.0389 78.8317 17.0717 78.4447 17.0717C77.9262 17.0717 77.4553 17.006 77.0318 16.8746C76.6082 16.7359 76.2468 16.535 75.9474 16.2722C75.6553 16.0093 75.429 15.6844 75.2683 15.2974C75.1077 14.9031 75.0274 14.4503 75.0274 13.9392C75.0274 13.5376 75.1296 13.125 75.3341 12.7015C75.5385 12.278 75.8927 11.8947 76.3965 11.5515C76.9003 11.201 77.5794 10.9089 78.4337 10.6752C79.2881 10.4416 80.3651 10.3101 81.6648 10.2809V9.79901C81.6648 9.13454 81.5261 8.65626 81.2486 8.36418C80.9785 8.0648 80.5915 7.91511 80.0876 7.91511C79.686 7.91511 79.3574 7.95893 79.1019 8.04655C78.8463 8.13417 78.6163 8.23275 78.4118 8.34228C78.2147 8.45181 78.0212 8.55038 77.8313 8.63801C77.6415 8.72563 77.4151 8.76944 77.1522 8.76944C76.9186 8.76944 76.7178 8.71468 76.5498 8.60515C76.3892 8.48832 76.2614 8.34593 76.1665 8.17798L75.5531 7.11555C76.2395 6.50949 76.9989 6.06042 77.8313 5.76835C78.671 5.46897 79.5692 5.31928 80.5257 5.31928C81.2121 5.31928 81.8291 5.43246 82.3768 5.65882C82.9317 5.87788 83.399 6.18821 83.7787 6.58981C84.1657 6.98412 84.4615 7.45509 84.6659 8.00274C84.8704 8.55038 84.9726 9.14914 84.9726 9.79901V16.8965H83.4173ZM79.5181 14.8264C79.9562 14.8264 80.3395 14.7497 80.6681 14.5964C80.9967 14.443 81.3289 14.1948 81.6648 13.8516V12.2744C80.9858 12.3036 80.4272 12.362 79.989 12.4496C79.5509 12.5372 79.2041 12.6468 78.9485 12.7782C78.6929 12.9096 78.514 13.0593 78.4118 13.2273C78.3169 13.3952 78.2694 13.5778 78.2694 13.7749C78.2694 14.1619 78.3753 14.4357 78.5871 14.5964C78.7988 14.7497 79.1092 14.8264 79.5181 14.8264Z" fill="black"/>
<path d="M90.5045 19.8428C90.4023 20.0692 90.2782 20.2335 90.1321 20.3357C89.9861 20.4452 89.7524 20.5 89.4311 20.5H86.8901L89.0806 15.8998L84.5461 5.53833H87.5472C87.8101 5.53833 88.0145 5.59675 88.1606 5.71358C88.3066 5.83041 88.4089 5.96915 88.4673 6.12979L90.3293 11.0257C90.5045 11.4785 90.6469 11.9312 90.7564 12.3839C90.8295 12.1502 90.9098 11.9202 90.9974 11.6939C91.085 11.4675 91.169 11.2375 91.2493 11.0038L92.9361 6.12979C92.9945 5.96185 93.1077 5.82311 93.2756 5.71358C93.4509 5.59675 93.637 5.53833 93.8342 5.53833H96.5724L90.5045 19.8428Z" fill="black"/>
<path d="M95.767 13.1038C95.767 12.7465 95.8121 12.4032 95.9023 12.0737C95.996 11.7442 96.126 11.4372 96.2925 11.1528C96.4625 10.8649 96.6654 10.603 96.9012 10.3672C97.1371 10.1313 97.3989 9.93017 97.6868 9.76369C97.9747 9.59374 98.2816 9.46367 98.6077 9.37349C98.9372 9.27985 99.2805 9.23302 99.6378 9.23302C99.995 9.23302 100.338 9.27985 100.668 9.37349C101.001 9.46367 101.31 9.59374 101.594 9.76369C101.882 9.93017 102.144 10.1313 102.38 10.3672C102.619 10.603 102.822 10.8649 102.988 11.1528C103.158 11.4372 103.288 11.7442 103.378 12.0737C103.472 12.4032 103.519 12.7465 103.519 13.1038C103.519 13.4576 103.472 13.7992 103.378 14.1287C103.288 14.4582 103.158 14.7669 102.988 15.0548C102.822 15.3392 102.619 15.5993 102.38 15.8352C102.144 16.071 101.882 16.2739 101.594 16.4439C101.31 16.6103 101.001 16.7404 100.668 16.8341C100.338 16.9242 99.995 16.9693 99.6378 16.9693C99.284 16.9693 98.9424 16.9242 98.6129 16.8341C98.2834 16.7404 97.9747 16.6103 97.6868 16.4439C97.3989 16.2739 97.1371 16.071 96.9012 15.8352C96.6654 15.5993 96.4625 15.3392 96.2925 15.0548C96.126 14.7669 95.996 14.4599 95.9023 14.1339C95.8121 13.8044 95.767 13.461 95.767 13.1038ZM96.6307 13.1038C96.6307 13.5443 96.707 13.9553 96.8596 14.3368C97.0157 14.7183 97.229 15.0513 97.4995 15.3357C97.7701 15.6166 98.0874 15.8386 98.4516 16.0016C98.8193 16.1612 99.2147 16.241 99.6378 16.241C100.037 16.241 100.41 16.1699 100.756 16.0277C101.107 15.8854 101.417 15.6877 101.688 15.4346H100.564C100.373 15.4346 100.241 15.3669 100.168 15.2317L99.6898 14.0298C99.6517 13.9709 99.61 13.9293 99.565 13.905C99.5233 13.8772 99.4609 13.8634 99.3777 13.8634H99.2112V15.4346H97.8169V10.747H99.6482C99.995 10.747 100.293 10.7782 100.543 10.8406C100.796 10.9031 101.003 10.9932 101.162 11.1112C101.325 11.2291 101.445 11.3748 101.521 11.5482C101.597 11.7216 101.636 11.9193 101.636 12.1413C101.636 12.287 101.618 12.4274 101.584 12.5627C101.549 12.6945 101.495 12.8176 101.422 12.9321C101.353 13.0431 101.261 13.1437 101.147 13.2338C101.036 13.324 100.902 13.3986 100.746 13.4576C100.847 13.5096 100.932 13.5772 101.001 13.6605C101.07 13.7402 101.133 13.8373 101.188 13.9518L101.833 15.2889C102.097 15.0079 102.303 14.6819 102.452 14.3108C102.602 13.9397 102.676 13.5373 102.676 13.1038C102.676 12.809 102.64 12.5263 102.567 12.2557C102.498 11.9852 102.397 11.7338 102.265 11.5014C102.137 11.2655 101.981 11.0522 101.797 10.8614C101.613 10.6672 101.408 10.5025 101.183 10.3672C100.958 10.2319 100.715 10.1279 100.455 10.055C100.194 9.97873 99.9222 9.94058 99.6378 9.94058C99.2147 9.94058 98.8193 10.0221 98.4516 10.1851C98.0874 10.3481 97.7701 10.5736 97.4995 10.8614C97.229 11.1459 97.0157 11.4806 96.8596 11.8656C96.707 12.2505 96.6307 12.6633 96.6307 13.1038ZM99.2112 12.9061H99.5441C99.7106 12.9061 99.8407 12.8939 99.9343 12.8697C100.031 12.8419 100.104 12.8038 100.153 12.7552C100.201 12.7066 100.231 12.6459 100.241 12.5731C100.255 12.4968 100.262 12.4118 100.262 12.3182C100.262 12.228 100.255 12.15 100.241 12.0841C100.231 12.0147 100.205 11.9575 100.163 11.9124C100.122 11.8638 100.059 11.8274 99.976 11.8031C99.8962 11.7788 99.7869 11.7667 99.6482 11.7667H99.2112V12.9061Z" fill="black"/>
</svg>
